<svg height="512" viewBox="0 0 128 128" width="512" xmlns="http://www.w3.org/2000/svg"><g id="Circle_Grid" data-name="Circle Grid"><circle cx="64" cy="64" fill="#2cbfae" r="64"/></g><g id="icon"><path d="m105 40.184v47.632a1.074 1.074 0 0 1 -.293.733c-.01 0-.01.01-.021.021a1.055 1.055 0 0 1 -.733.293h-79.906a1.05 1.05 0 0 1 -1.047-1.047v-47.632a1.05 1.05 0 0 1 1.047-1.047h79.906a1.043 1.043 0 0 1 1.047 1.047z" fill="#eeefee"/><g fill="#dbd8dd"><path d="m104.738 39.483c-3.193 2.764-40.733 33.8-40.733 33.8s-37.55-31.039-40.733-33.8c3.266 2 34.9 24.873 40.733 28.893 5.863-4.051 37.467-26.894 40.733-28.893z"/><path d="m104.707 88.549c-.01 0-.01.01-.021.021l-29.228-27.041 2.219-2.219z"/><path d="m23.3 88.549c.01 0 .01.01.021.021l30.659-25.607-2.219-2.219z"/></g></g></svg>