<?xml version="1.0" encoding="iso-8859-1"?>
<!-- Generator: Adobe Illustrator 19.0.0, SVG Export Plug-In . SVG Version: 6.00 Build 0)  -->
<svg version="1.1" id="Capa_1" xmlns="http://www.w3.org/2000/svg" xmlns:xlink="http://www.w3.org/1999/xlink" x="0px" y="0px"
	 viewBox="0 0 512 512" style="enable-background:new 0 0 512 512;" xml:space="preserve">
<linearGradient id="SVGID_1_" gradientUnits="userSpaceOnUse" x1="34.9286" y1="233.39" x2="605.1786" y2="233.39" gradientTransform="matrix(1.0039 0 0 -1.0039 0.1922 516.5609)">
	<stop  offset="0" style="stop-color:#4D4D4D"/>
	<stop  offset="1" style="stop-color:#333333"/>
</linearGradient>
<path style="fill:url(#SVGID_1_);" d="M481.953,469.749H30.047C13.453,469.749,0,456.296,0,439.702V124.81
	c0-16.595,13.453-30.047,30.047-30.047h451.905c16.595,0,30.047,13.453,30.047,30.047v314.892
	C512,456.296,498.547,469.749,481.953,469.749z"/>
<linearGradient id="SVGID_2_" gradientUnits="userSpaceOnUse" x1="254.8086" y1="120.453" x2="254.8086" y2="293.963" gradientTransform="matrix(1.0039 0 0 -1.0039 0.1922 516.5609)">
	<stop  offset="0" style="stop-color:#4D4D4D;stop-opacity:0"/>
	<stop  offset="1" style="stop-color:#000000"/>
</linearGradient>
<path style="fill:url(#SVGID_2_);" d="M25.96,260.632l209.117,209.117h246.875c16.595,0,30.047-13.453,30.047-30.047V124.81
	c0-6.267-1.921-12.085-5.204-16.901l0,0c-0.313-0.461-0.643-0.91-0.981-1.35c-0.072-0.094-0.147-0.187-0.22-0.279
	c-0.278-0.353-0.563-0.701-0.855-1.042c-0.086-0.099-0.172-0.2-0.259-0.299c-0.318-0.36-0.645-0.713-0.979-1.057
	c-0.055-0.056-0.108-0.115-0.164-0.172c-0.794-0.805-1.634-1.564-2.515-2.276c-0.103-0.084-0.21-0.165-0.315-0.248
	c-0.336-0.265-0.679-0.523-1.027-0.773c-0.124-0.089-0.249-0.179-0.374-0.266c-0.363-0.253-0.733-0.497-1.107-0.735
	c-0.099-0.063-0.198-0.13-0.298-0.191c-0.484-0.299-0.977-0.586-1.479-0.857c-0.009-0.005-0.018-0.009-0.027-0.014
	c-0.478-0.258-0.965-0.5-1.457-0.732c-0.143-0.067-0.287-0.13-0.431-0.195c-0.369-0.167-0.743-0.327-1.12-0.48
	c-0.167-0.067-0.334-0.134-0.503-0.199c-0.384-0.147-0.771-0.284-1.162-0.416c-0.149-0.05-0.296-0.103-0.447-0.152
	c-0.539-0.172-1.084-0.332-1.636-0.474c-0.023-0.006-0.048-0.01-0.071-0.016c-0.523-0.133-1.053-0.249-1.587-0.354
	c-0.175-0.034-0.352-0.063-0.529-0.094c-0.393-0.07-0.787-0.134-1.185-0.188c-0.2-0.027-0.4-0.053-0.599-0.076
	c-0.401-0.047-0.804-0.083-1.209-0.114c-0.182-0.014-0.362-0.031-0.545-0.041c-0.582-0.034-1.169-0.055-1.76-0.055H30.047
	C13.453,94.763,0,108.216,0,124.811v79.324C0,226.733,10.074,246.966,25.96,260.632z"/>
<g>
	
		<linearGradient id="SVGID_3_" gradientUnits="userSpaceOnUse" x1="71.3975" y1="375.6476" x2="36.2775" y2="356.8256" gradientTransform="matrix(1.0039 0 0 -1.0039 0.1922 516.5609)">
		<stop  offset="0" style="stop-color:#4D4D4D"/>
		<stop  offset="1" style="stop-color:#333333"/>
	</linearGradient>
	<path style="fill:url(#SVGID_3_);" d="M167.662,106.381h-8.413c-6.527,0-11.818-5.292-11.818-11.818V86.15
		c0-6.527,5.292-11.818,11.818-11.818h8.413c6.527,0,11.818,5.292,11.818,11.818v8.413
		C179.48,101.09,174.189,106.381,167.662,106.381z"/>
	
		<linearGradient id="SVGID_4_" gradientUnits="userSpaceOnUse" x1="112.536" y1="298.8871" x2="77.416" y2="280.0651" gradientTransform="matrix(1.0039 0 0 -1.0039 0.1922 516.5609)">
		<stop  offset="0" style="stop-color:#4D4D4D"/>
		<stop  offset="1" style="stop-color:#333333"/>
	</linearGradient>
	<path style="fill:url(#SVGID_4_);" d="M352.751,106.381h-8.413c-6.528,0-11.818-5.292-11.818-11.818V86.15
		c0-6.527,5.292-11.818,11.818-11.818h8.413c6.527,0,11.818,5.292,11.818,11.818v8.413
		C364.57,101.09,359.278,106.381,352.751,106.381z"/>
</g>
<linearGradient id="SVGID_5_" gradientUnits="userSpaceOnUse" x1="254.9532" y1="349.7531" x2="219.8332" y2="137.1731" gradientTransform="matrix(1.0039 0 0 -1.0039 0.1922 516.5609)">
	<stop  offset="0" style="stop-color:#4D4D4D"/>
	<stop  offset="1" style="stop-color:#333333"/>
</linearGradient>
<path style="fill:url(#SVGID_5_);" d="M481.953,94.763H30.047C13.453,94.763,0,108.216,0,124.811v79.324
	c0,41.155,33.362,74.516,74.516,74.516h362.967c41.155,0,74.516-33.362,74.516-74.516v-79.324
	C512,108.215,498.547,94.763,481.953,94.763z"/>
<linearGradient id="SVGID_6_" gradientUnits="userSpaceOnUse" x1="220.0916" y1="153.576" x2="91.7916" y2="281.8759" gradientTransform="matrix(1.0039 0 0 -1.0039 0.1922 516.5609)">
	<stop  offset="0" style="stop-color:#4D4D4D;stop-opacity:0"/>
	<stop  offset="1" style="stop-color:#000000"/>
</linearGradient>
<path style="fill:url(#SVGID_6_);" d="M168.467,257.69c-3.008-3.356-7.362-5.48-12.224-5.48h-40.863
	c-9.071,0-16.426,7.354-16.426,16.425v16.827c0,4.861,2.124,9.216,5.48,12.224l63.924,63.924c3.008,3.356,7.362,5.48,12.224,5.48
	h40.864c9.071,0,16.425-7.354,16.425-16.426v-16.827c0-4.861-2.124-9.216-5.48-12.224L168.467,257.69z"/>
<linearGradient id="SVGID_7_" gradientUnits="userSpaceOnUse" x1="135.0901" y1="254.573" x2="135.0901" y2="222.023" gradientTransform="matrix(1.0039 0 0 -1.0039 0.1922 516.5609)">
	<stop  offset="0" style="stop-color:#FCC344"/>
	<stop  offset="1" style="stop-color:#D48000"/>
</linearGradient>
<path style="fill:url(#SVGID_7_);" d="M145.313,284.334l23.31-9.646c2.45-1.014,4.047-3.403,4.047-6.054l0,0
	c0-9.071-7.354-16.425-16.425-16.425h-40.864c-9.071,0-16.426,7.354-16.426,16.426l0,0c0,2.65,1.597,5.04,4.047,6.054l23.31,9.646
	C132.395,286.852,139.229,286.852,145.313,284.334z"/>
<linearGradient id="SVGID_8_" gradientUnits="userSpaceOnUse" x1="135.0901" y1="227.003" x2="135.0901" y2="210.923" gradientTransform="matrix(1.0039 0 0 -1.0039 0.1922 516.5609)">
	<stop  offset="0" style="stop-color:#FCC344"/>
	<stop  offset="1" style="stop-color:#D48000"/>
</linearGradient>
<path style="fill:url(#SVGID_8_);" d="M156.244,301.886h-40.864c-9.071,0-16.426-7.354-16.426-16.426v-16.827
	c0-9.071,7.354-16.426,16.426-16.426h40.864c9.071,0,16.425,7.354,16.425,16.426v16.827
	C172.669,294.533,165.316,301.886,156.244,301.886z"/>
<linearGradient id="SVGID_9_" gradientUnits="userSpaceOnUse" x1="135.0901" y1="214.383" x2="135.0901" y2="238.913" gradientTransform="matrix(1.0039 0 0 -1.0039 0.1922 516.5609)">
	<stop  offset="0" style="stop-color:#D48000;stop-opacity:0"/>
	<stop  offset="1" style="stop-color:#D48000"/>
</linearGradient>
<path style="fill:url(#SVGID_9_);" d="M101.464,273.778l28.108,28.108h26.672c9.071,0,16.425-7.354,16.425-16.426v-16.827
	c0-4.266-1.639-8.139-4.306-11.059l-0.001-0.001c-0.374-0.41-0.769-0.8-1.182-1.171c-0.003-0.002-0.005-0.005-0.008-0.007
	c-0.403-0.36-0.823-0.7-1.259-1.019c-0.02-0.015-0.039-0.03-0.059-0.044c-0.415-0.301-0.846-0.58-1.288-0.842
	c-0.046-0.027-0.09-0.056-0.137-0.083c-0.415-0.24-0.844-0.458-1.281-0.662c-0.078-0.036-0.155-0.077-0.235-0.113
	c-0.407-0.182-0.826-0.34-1.25-0.489c-0.113-0.04-0.224-0.087-0.339-0.124c-0.401-0.131-0.811-0.236-1.225-0.336
	c-0.142-0.034-0.279-0.078-0.423-0.108c-0.413-0.088-0.834-0.149-1.257-0.205c-0.148-0.019-0.29-0.051-0.439-0.067
	c-0.57-0.06-1.149-0.093-1.736-0.093h-40.866c-9.071,0-16.426,7.354-16.426,16.426C98.955,270.676,99.909,272.557,101.464,273.778z"
	/>
<linearGradient id="SVGID_10_" gradientUnits="userSpaceOnUse" x1="135.0901" y1="247.753" x2="135.0901" y2="227.743" gradientTransform="matrix(1.0039 0 0 -1.0039 0.1922 516.5609)">
	<stop  offset="0" style="stop-color:#FCC344"/>
	<stop  offset="1" style="stop-color:#D48000"/>
</linearGradient>
<path style="fill:url(#SVGID_10_);" d="M145.313,284.334l23.31-9.646c2.45-1.014,4.047-3.403,4.047-6.054l0,0
	c0-9.071-7.354-16.425-16.425-16.425h-40.864c-9.071,0-16.426,7.354-16.426,16.426l0,0c0,2.65,1.597,5.04,4.047,6.054l23.31,9.646
	C132.395,286.852,139.229,286.852,145.313,284.334z"/>
<linearGradient id="SVGID_11_" gradientUnits="userSpaceOnUse" x1="459.5296" y1="153.574" x2="331.2296" y2="281.874" gradientTransform="matrix(1.0039 0 0 -1.0039 0.1922 516.5609)">
	<stop  offset="0" style="stop-color:#4D4D4D;stop-opacity:0"/>
	<stop  offset="1" style="stop-color:#000000"/>
</linearGradient>
<path style="fill:url(#SVGID_11_);" d="M408.843,257.69c-3.008-3.356-7.362-5.48-12.224-5.48h-40.864
	c-9.071,0-16.426,7.354-16.426,16.425v16.827c0,4.861,2.124,9.216,5.48,12.224l63.924,63.924c3.008,3.356,7.362,5.48,12.224,5.48
	h40.864c9.071,0,16.425-7.354,16.425-16.426v-16.827c0-4.861-2.124-9.216-5.48-12.224L408.843,257.69z"/>
<linearGradient id="SVGID_12_" gradientUnits="userSpaceOnUse" x1="374.5271" y1="254.573" x2="374.5271" y2="222.023" gradientTransform="matrix(1.0039 0 0 -1.0039 0.1922 516.5609)">
	<stop  offset="0" style="stop-color:#FCC344"/>
	<stop  offset="1" style="stop-color:#D48000"/>
</linearGradient>
<path style="fill:url(#SVGID_12_);" d="M385.689,284.334l23.31-9.646c2.45-1.014,4.047-3.403,4.047-6.054l0,0
	c0-9.071-7.354-16.425-16.425-16.425h-40.864c-9.071,0-16.426,7.354-16.426,16.426l0,0c0,2.65,1.597,5.04,4.047,6.054l23.31,9.646
	C372.77,286.852,379.605,286.852,385.689,284.334z"/>
<linearGradient id="SVGID_13_" gradientUnits="userSpaceOnUse" x1="374.5261" y1="227.003" x2="374.5261" y2="210.923" gradientTransform="matrix(1.0039 0 0 -1.0039 0.1922 516.5609)">
	<stop  offset="0" style="stop-color:#FCC344"/>
	<stop  offset="1" style="stop-color:#D48000"/>
</linearGradient>
<path style="fill:url(#SVGID_13_);" d="M396.619,301.886h-40.864c-9.071,0-16.426-7.354-16.426-16.426v-16.827
	c0-9.071,7.354-16.426,16.426-16.426h40.864c9.071,0,16.425,7.354,16.425,16.426v16.827
	C413.046,294.533,405.692,301.886,396.619,301.886z"/>
<linearGradient id="SVGID_14_" gradientUnits="userSpaceOnUse" x1="374.528" y1="214.383" x2="374.528" y2="238.913" gradientTransform="matrix(1.0039 0 0 -1.0039 0.1922 516.5609)">
	<stop  offset="0" style="stop-color:#D48000;stop-opacity:0"/>
	<stop  offset="1" style="stop-color:#D48000"/>
</linearGradient>
<path style="fill:url(#SVGID_14_);" d="M341.84,273.778l28.108,28.108h26.672c9.071,0,16.425-7.354,16.425-16.426v-16.827
	c0-4.266-1.639-8.139-4.306-11.059l-0.001-0.001c-0.374-0.41-0.769-0.8-1.182-1.171c-0.003-0.002-0.005-0.005-0.008-0.007
	c-0.403-0.36-0.823-0.7-1.259-1.019c-0.02-0.015-0.039-0.03-0.059-0.044c-0.415-0.301-0.846-0.58-1.288-0.842
	c-0.046-0.027-0.09-0.056-0.137-0.083c-0.415-0.24-0.844-0.458-1.281-0.662c-0.078-0.036-0.155-0.077-0.235-0.113
	c-0.407-0.182-0.826-0.34-1.25-0.489c-0.113-0.04-0.224-0.087-0.339-0.124c-0.401-0.131-0.811-0.236-1.225-0.336
	c-0.142-0.034-0.279-0.078-0.423-0.108c-0.412-0.088-0.834-0.149-1.257-0.205c-0.148-0.019-0.29-0.051-0.439-0.067
	c-0.57-0.06-1.15-0.093-1.736-0.093h-40.864c-9.071,0-16.426,7.354-16.426,16.426C339.331,270.676,340.284,272.557,341.84,273.778z"
	/>
<linearGradient id="SVGID_15_" gradientUnits="userSpaceOnUse" x1="374.5271" y1="247.753" x2="374.5271" y2="227.743" gradientTransform="matrix(1.0039 0 0 -1.0039 0.1922 516.5609)">
	<stop  offset="0" style="stop-color:#FCC344"/>
	<stop  offset="1" style="stop-color:#D48000"/>
</linearGradient>
<path style="fill:url(#SVGID_15_);" d="M385.689,284.334l23.31-9.646c2.45-1.014,4.047-3.403,4.047-6.054l0,0
	c0-9.071-7.354-16.425-16.425-16.425h-40.864c-9.071,0-16.426,7.354-16.426,16.426l0,0c0,2.65,1.597,5.04,4.047,6.054l23.31,9.646
	C372.77,286.852,379.605,286.852,385.689,284.334z"/>
<linearGradient id="SVGID_16_" gradientUnits="userSpaceOnUse" x1="254.8086" y1="115.663" x2="254.8086" y2="29.433" gradientTransform="matrix(1.0039 0 0 -1.0039 0.1922 516.5609)">
	<stop  offset="0" style="stop-color:#4D4D4D;stop-opacity:0"/>
	<stop  offset="1" style="stop-color:#000000"/>
</linearGradient>
<path style="fill:url(#SVGID_16_);" d="M0,359.577v80.125c0,16.595,13.453,30.047,30.047,30.047h451.905
	c16.595,0,30.047-13.453,30.047-30.047v-80.125H0z"/>
<linearGradient id="SVGID_17_" gradientUnits="userSpaceOnUse" x1="254.8084" y1="460.755" x2="254.8084" y2="415.693" gradientTransform="matrix(1.0039 0 0 -1.0039 0.1922 516.5609)">
	<stop  offset="0" style="stop-color:#FCC344"/>
	<stop  offset="1" style="stop-color:#D48000"/>
</linearGradient>
<path style="fill:url(#SVGID_17_);" d="M343.338,88.613c-1.81,0-3.651-0.297-5.457-0.925c-22.619-7.86-51.697-12.187-81.881-12.187
	c-30.184,0-59.261,4.328-81.881,12.187c-8.667,3.011-18.147-1.574-21.161-10.248s1.574-18.147,10.248-21.161
	c26.038-9.046,58.991-14.029,92.793-14.029s66.756,4.982,92.793,14.029c8.674,3.014,13.261,12.487,10.248,21.161
	C356.655,84.307,350.22,88.613,343.338,88.613z"/>
<linearGradient id="SVGID_18_" gradientUnits="userSpaceOnUse" x1="284.5706" y1="48.623" x2="284.5706" y2="132.883" gradientTransform="matrix(1.0039 0 0 -1.0039 0.1922 516.5609)">
	<stop  offset="0" style="stop-color:#1A1A1A;stop-opacity:0"/>
	<stop  offset="1" style="stop-color:#000000"/>
</linearGradient>
<path style="fill:url(#SVGID_18_);" d="M311.161,409.591c-0.587-1.151-1.771-1.949-3.152-1.949H203.991
	c-1.961,0-3.551,1.589-3.551,3.551v10.227c0,1.381,0.797,2.565,1.948,3.152l45.175,45.175h123.754L311.161,409.591z"/>
<linearGradient id="SVGID_19_" gradientUnits="userSpaceOnUse" x1="254.8086" y1="106.553" x2="254.8086" y2="91.053" gradientTransform="matrix(1.0039 0 0 -1.0039 0.1922 516.5609)">
	<stop  offset="0" style="stop-color:#FCC344"/>
	<stop  offset="1" style="stop-color:#D48000"/>
</linearGradient>
<path style="fill:url(#SVGID_19_);" d="M200.44,411.194v10.227c0,1.961,1.589,3.551,3.551,3.551h104.018
	c1.961,0,3.551-1.589,3.551-3.551v-10.227c0-1.961-1.589-3.551-3.551-3.551H203.991C202.03,407.643,200.44,409.233,200.44,411.194z"
	/>
<g>
</g>
<g>
</g>
<g>
</g>
<g>
</g>
<g>
</g>
<g>
</g>
<g>
</g>
<g>
</g>
<g>
</g>
<g>
</g>
<g>
</g>
<g>
</g>
<g>
</g>
<g>
</g>
<g>
</g>
</svg>
